HIERARCHY
ROOT Hips
{
  OFFSET 0.00289929 105.609 0.00539201
  CHANNELS 6 Xposition Yposition Zposition Zrotation Xrotation Yrotation
  JOINT LeftUpLeg
  {
    OFFSET 11.7847 -9.5453 1.41356
    CHANNELS 3 Zrotation Xrotation Yrotation
    JOINT LeftLeg
    {
      OFFSET 2.3278 -43.7578 1.59467
      CHANNELS 3 Zrotation Xrotation Yrotation
      JOINT LeftFoot
      {
        OFFSET 2.90255 -43.4592 -3.97108
        CHANNELS 3 Zrotation Xrotation Yrotation
        JOINT LeftFootHeel
        {
          OFFSET 1.05455 -6.08588 -5.40969
          CHANNELS 3 Zrotation Xrotation Yrotation
          End Site
          {
            OFFSET 0.237008 0 16.8796
          }
        }
      }
    }
  }
  JOINT RightUpLeg
  {
    OFFSET -11.7847 -9.5453 1.41356
    CHANNELS 3 Zrotation Xrotation Yrotation
    JOINT RightLeg
    {
      OFFSET -2.3278 -43.7578 1.59467
      CHANNELS 3 Zrotation Xrotation Yrotation
      JOINT RightFoot
      {
        OFFSET -2.90255 -43.4592 -3.97108
        CHANNELS 3 Zrotation Xrotation Yrotation
        JOINT RightFootHeel
        {
          OFFSET -1.05455 -6.08588 -5.40969
          CHANNELS 3 Zrotation Xrotation Yrotation
          End Site
          {
            OFFSET -0.237008 0 16.8796
          }
        }
      }
    }
  }
  JOINT Spine
  {
    OFFSET 0 10.6178 -0.495271
    CHANNELS 3 Zrotation Xrotation Yrotation
    JOINT Spine1
    {
      OFFSET 0 17.4697 -0.134436
      CHANNELS 3 Zrotation Xrotation Yrotation
      JOINT LeftShoulder
      {
        OFFSET 7.056 13.668 -0.403456
        CHANNELS 3 Zrotation Xrotation Yrotation
        JOINT LeftArm
        {
          OFFSET 11.8222 -0.144197 0.096185
          CHANNELS 3 Zrotation Xrotation Yrotation
          JOINT LeftForeArm
          {
            OFFSET 3.82891 -31.027 -0.436703
            CHANNELS 3 Zrotation Xrotation Yrotation
            JOINT LeftHand
            {
              OFFSET 1.15427 -26.3572 5.8811
              CHANNELS 3 Zrotation Xrotation Yrotation
              End Site
              {
                OFFSET -0.489854 -9.00594 2.03635
              }
            }
          }
        }
      }
      JOINT RightShoulder
      {
        OFFSET -7.056 13.668 -0.403456
        CHANNELS 3 Zrotation Xrotation Yrotation
        JOINT RightArm
        {
          OFFSET -11.8222 -0.144197 0.096185
          CHANNELS 3 Zrotation Xrotation Yrotation
          JOINT RightForeArm
          {
            OFFSET -3.82891 -31.027 -0.436703
            CHANNELS 3 Zrotation Xrotation Yrotation
            JOINT RightHand
            {
              OFFSET -1.15427 -26.3572 5.8811
              CHANNELS 3 Zrotation Xrotation Yrotation
              End Site
              {
                OFFSET 0.489854 -9.00594 2.03635
              }
            }
          }
        }
      }
      JOINT Neck
      {
        OFFSET 0 14.1859 -0.40331
        CHANNELS 3 Zrotation Xrotation Yrotation
        JOINT Head
        {
          OFFSET 0 13.9091 2.58427
          CHANNELS 3 Zrotation Xrotation Yrotation
          End Site
          {
            OFFSET 0 20.1079 -0.354832
          }
        }
      }
    }
  }
}
MOTION
Frames:	11
Frame Time:	0.0166667
10.71 91.6309 48.6482 5.0263 -8.83058 27.6175 -3.58367 -2.64891 2.17273 1.52438 51.6018 9.57423 -5.89459 -36.4522 4.27209 -0 0 0 -1.15063 -34.7468 0.198571 -5.29059 43.9617 -8.69894 7.96738 8.93126 7.74187 -0 0 0 -1.31624 9.15504 -16.2098 -1.31624 9.15505 -16.2098 15.5396 -0.50604 -1.94512 -82.846 -82.3662 -124.147 8.53052 -1.37178 21.1739 9.75452 -3.21121 34.3828 0.315835 -0.531141 8.86641 2.13559 -15.0786 12.9475 107.278 -29.643 95.4469 -29.5146 -5.75472 1.33548 -0.156986 2.0482 -20.1476 1e-006 1e-006 -2e-006 
10.8029 91.9368 48.6978 4.40025 -8.59779 27.7297 -3.15089 -3.08329 3.10027 2.96947 51.3038 7.40197 -5.65658 -36.0565 4.46801 -0 0 0 -1.29061 -34.5496 1.52597 -2.66667 43.0031 -11.8304 7.56579 9.32633 7.92484 -0 0 0 -1.10174 9.12682 -16.1185 -1.10173 9.12682 -16.1185 14.3708 0.928296 -2.45173 -43.5824 -81.7464 -87.9746 10.3448 -9.30917 18.9252 10.8039 -4.28291 36.8661 -0.805267 -1.0352 9.09782 0.340091 -17.7926 12.6611 114.506 -28.8508 102.754 -28.7538 -3.86553 0.664527 -0.662687 1.49547 -19.9795 1e-006 1e-006 -2e-006 
11.0371 92.0826 48.6767 4.30034 -8.4759 27.0002 -3.35844 -2.9771 3.70997 3.1382 50.9322 7.20484 -5.28641 -35.741 4.83004 -0 0 0 -2.01576 -34.6075 1.18377 -0.997212 42.5229 -12.7219 6.58913 9.50028 8.76501 -0 0 0 -1.73011 9.28389 -15.5817 -1.73011 9.28389 -15.5817 13.7392 1.48497 -1.23989 -18.68 -76.144 -60.4551 9.49554 -22.0972 12.4251 9.86811 -6.51517 38.0307 -0.982421 -1.99473 10.1964 -0.510593 -23.2371 10.4859 120.262 -28.9523 107.663 -28.8212 -2.37561 -2.49664 1.3725 2.37765 -20.2637 1e-006 1e-006 -2e-006 
11.1485 92.1499 48.5279 4.5194 -8.13167 25.5846 -4.00836 -2.93129 4.62515 2.91261 50.4399 7.34989 -4.55944 -35.5618 5.85046 -0 0 0 -2.53339 -35.2051 -0.334038 -1.25299 42.2298 -11.2491 5.44079 9.96018 10.0423 -0 0 0 -2.68077 9.19616 -14.3001 -2.68076 9.19616 -14.3001 13.7954 1.38591 0.463979 -16.0321 -71.6213 -56.625 3.26523 -32.0717 9.40757 11.2471 -6.35452 36.4309 -1.49902 -3.01435 11.1066 -0.377837 -30.1922 7.35537 123.379 -32.1716 111.292 -27.7503 2.25575 -9.24103 3.2432 3.33653 -21.4443 1e-006 1e-006 -2e-006 
11.3563 92.1739 48.266 4.86266 -7.4454 23.44 -5.0076 -3.07755 6.4453 2.95491 49.6421 7.56365 -3.96294 -35.5742 6.50534 -0 0 0 -2.49509 -36.3967 -1.59616 -2.53233 41.9013 -8.69676 4.29284 10.7895 11.3271 -0 0 0 -3.56057 8.29809 -12.5642 -3.56056 8.29809 -12.5642 13.9732 1.87816 1.81321 -8.55932 -62.0727 -45.072 -5.75662 -44.9299 1.37739 14.1062 -7.38356 32.7031 -2.80114 -2.86572 12.1569 -0.0816363 -38.8123 2.97595 122.159 -37.3144 110.238 -27.0438 2.28573 -17.3427 4.70212 5.56602 -23.5167 1e-006 1e-006 -2e-006 
11.9183 92.2094 48.0592 4.81117 -6.44594 20.7095 -6.00036 -3.48143 8.81165 3.38396 48.5456 7.87044 -3.61957 -35.9387 6.62868 -0 0 0 -1.77568 -37.973 -1.93072 -3.47042 41.2966 -6.52324 3.11759 11.8106 12.5814 -0 0 0 -3.88567 6.99462 -10.7132 -3.88567 6.99462 -10.7132 13.3693 3.39108 2.93166 -4.97128 -51.7333 -37.4591 -18.7634 -54.888 -11.4128 14.1071 -8.58016 30.2797 -5.64879 -1.71702 14.0439 1.25064 -49.0564 0.380505 115.26 -45.1115 103.148 -24.0741 3.60026 -20.1387 5.00496 7.12363 -25.6837 1e-006 1e-006 -2e-006 
12.4995 92.2916 47.7808 4.50221 -5.78499 17.4414 -6.83392 -3.63612 10.3389 3.08118 47.3442 9.26382 -3.32708 -36.3956 7.26932 -0 0 0 0.168342 -38.8959 0.498107 -3.60425 40.1236 -5.74143 2.56351 13.0886 13.1234 -0 0 0 -4.04621 6.56509 -8.64045 -4.04621 6.56509 -8.64045 11.6399 4.50932 3.38252 -0.794521 -41.7023 -30.6083 -39.879 -60.7655 -32.4268 15.4527 -8.21459 29.7421 -9.07095 -1.14813 17.2255 1.29066 -59.5543 -1.33966 100.779 -55.5862 88.2065 -20.1765 1.95691 -19.4158 5.93474 6.53673 -27.7926 1e-006 1e-006 -2e-006 
13.008 92.4249 47.3429 4.21515 -5.73443 13.9484 -7.48461 -3.39073 10.7566 1.50114 46.3364 11.9553 -2.74531 -36.4537 8.76841 -0 0 0 1.94541 -38.9797 1.94013 -3.49333 38.4098 -4.72823 1.437 14.6635 14.3745 -0 0 0 -4.73909 7.51084 -6.78587 -4.73909 7.51084 -6.78586 11.8179 3.14293 4.14317 2.26421 -32.6748 -24.6349 -65.5853 -60.7382 -57.6924 17.4064 -4.46746 30.6459 -10.2071 -2.45897 20.833 -1.35771 -69.2955 -2.12758 68.6178 -64.1599 55.0432 -16.2723 -0.568153 -19.2827 8.53042 3.84582 -28.7063 1e-006 1e-006 -2e-006 
13.4805 92.4696 46.8349 4.05702 -5.96924 10.6438 -7.90411 -2.99429 10.6246 -1.0603 45.5192 15.7797 -2.09486 -36.5266 9.96879 -0 0 0 3.36393 -38.7689 3.21673 -3.15034 36.8957 -3.92736 0.363591 15.9291 15.7294 -0 0 0 -5.86974 9.1685 -5.28172 -5.86974 9.1685 -5.28172 11.4391 1.79824 5.61722 6.25787 -27.9532 -21.1325 -81.0489 -58.7122 -74.0449 17.8552 -2.7072 34.0887 -9.46154 -3.91642 23.0283 -0.111486 -80.0328 4.56671 22.6792 -58.3815 4.5669 -12.4301 -5.79507 -20.1373 11.2241 0.749488 -28.1736 1e-006 1e-006 -2e-006 
13.5993 92.4435 46.4235 4.30607 -6.01027 8.07591 -8.26383 -2.96947 11.807 -2.21137 45.0664 17.3083 -1.7149 -36.4088 10.5509 -0 0 0 4.02817 -38.9049 3.84107 -3.02268 36.0324 -3.30665 -0.610695 16.513 17.303 -0 0 0 -6.70493 9.76182 -4.3626 -6.70493 9.76182 -4.3626 11.2642 1.8322 5.68228 9.42767 -26.1861 -21.458 -94.7804 -58.5989 -86.9019 20.4337 -1.9539 34.9568 -8.87787 -2.96743 24.5101 135.513 -84.2419 145.64 -1.56538 -30.6171 -20.1654 -9.35391 -12.8713 -25.2203 11.5222 0.0687921 -27.3734 1e-006 1e-006 -2e-006 
13.6444 92.3815 46.5849 4.89535 -5.16003 6.79677 -8.99311 -3.40593 11.4252 -3.77784 44.4163 19.2291 -1.42833 -36.3945 10.9257 -0 0 0 4.48834 -40.1367 3.83878 -4.1005 36.3691 -2.73886 -1.15542 16.158 18.9277 -0 0 0 -7.16108 9.74452 -4.07855 -7.16108 9.74453 -4.07855 12.0852 1.06096 5.2557 10.4315 -27.8119 -25.2593 -106.336 -62.2151 -99.3171 22.0521 -2.60157 36.6208 -8.68311 -5.61289 25.302 135.109 -75.1191 144.204 -11.1939 -12.7294 -16.6717 -16.0008 -6.58605 -30.7064 10.2921 -0.257332 -27.1086 1e-006 1e-006 -2e-006 
